<svg width="1024" height="1024" viewBox="0 0 1024 1024" fill="none" xmlns="http://www.w3.org/2000/svg">
  <defs>
    <linearGradient id="bg" x1="128" y1="64" x2="896" y2="960" gradientUnits="userSpaceOnUse">
      <stop stop-color="#0F172A"/>
      <stop offset="1" stop-color="#020617"/>
    </linearGradient>
    <linearGradient id="teal" x1="240" y1="180" x2="790" y2="780" gradientUnits="userSpaceOnUse">
      <stop stop-color="#67E8F9"/>
      <stop offset="1" stop-color="#06B6D4"/>
    </linearGradient>
    <linearGradient id="road" x1="512" y1="360" x2="512" y2="850" gradientUnits="userSpaceOnUse">
      <stop stop-color="#38BDF8" stop-opacity="0.95"/>
      <stop offset="1" stop-color="#0EA5E9" stop-opacity="0.7"/>
    </linearGradient>
    <filter id="glow" x="130" y="120" width="764" height="784" filterUnits="userSpaceOnUse" color-interpolation-filters="sRGB">
      <feGaussianBlur stdDeviation="18" result="blur"/>
      <feBlend mode="screen" in="SourceGraphic" in2="blur"/>
    </filter>
  </defs>

  <rect x="64" y="64" width="896" height="896" rx="196" fill="url(#bg)"/>
  <rect x="64" y="64" width="896" height="896" rx="196" stroke="#1E293B" stroke-width="6"/>

  <g filter="url(#glow)">
    <path d="M238 252C238 226.595 258.595 206 284 206H740C765.405 206 786 226.595 786 252V308C786 333.405 765.405 354 740 354H566V768C566 793.405 545.405 814 520 814H502C476.595 814 456 793.405 456 768V354H284C258.595 354 238 333.405 238 308V252Z" fill="url(#teal)"/>
  </g>

  <path d="M512 424C560.601 424 600 463.399 600 512V764H424V512C424 463.399 463.399 424 512 424Z" fill="url(#road)"/>
  <rect x="494" y="470" width="36" height="58" rx="18" fill="#E0F2FE"/>
  <rect x="494" y="552" width="36" height="58" rx="18" fill="#E0F2FE"/>
  <rect x="494" y="634" width="36" height="58" rx="18" fill="#E0F2FE"/>

  <circle cx="292" cy="736" r="20" fill="#22D3EE" fill-opacity="0.22"/>
  <circle cx="760" cy="296" r="16" fill="#22D3EE" fill-opacity="0.22"/>

  <path d="M236 850C236 822.386 258.386 800 286 800H738C765.614 800 788 822.386 788 850V850C788 877.614 765.614 900 738 900H286C258.386 900 236 877.614 236 850V850Z" fill="#0B1225"/>
  <text x="512" y="865" text-anchor="middle" fill="#BAE6FD" font-family="'Space Grotesk', 'Segoe UI', sans-serif" font-size="52" font-weight="700" letter-spacing="2">T-DRIVE APP</text>
</svg>
